<svg width="794" height="101" viewBox="0 0 794 101" fill="none" xmlns="http://www.w3.org/2000/svg">
<path d="M180.326 94.6739C175.036 94.6739 170.254 93.7681 165.978 91.9565C161.775 90.1449 158.442 87.5362 155.978 84.1304C153.514 80.7246 152.246 76.7029 152.174 72.0652H168.478C168.696 75.1812 169.783 77.6449 171.739 79.4565C173.768 81.2681 176.522 82.1739 180 82.1739C183.551 82.1739 186.341 81.3406 188.37 79.6739C190.399 77.9348 191.413 75.6884 191.413 72.9348C191.413 70.6884 190.725 68.8406 189.348 67.3913C187.971 65.942 186.232 64.8188 184.13 64.0217C182.101 63.1522 179.275 62.2101 175.652 61.1957C170.725 59.7464 166.703 58.3333 163.587 56.9565C160.543 55.5073 157.899 53.3696 155.652 50.5435C153.478 47.6449 152.391 43.8044 152.391 39.0217C152.391 34.529 153.514 30.6159 155.761 27.2826C158.007 23.9493 161.159 21.413 165.217 19.6739C169.275 17.8623 173.913 16.9565 179.13 16.9565C186.957 16.9565 193.297 18.8768 198.152 22.7174C203.08 26.4855 205.797 31.7754 206.304 38.587H189.565C189.42 35.9783 188.297 33.8406 186.196 32.1739C184.167 30.4348 181.449 29.5652 178.043 29.5652C175.072 29.5652 172.681 30.3261 170.87 31.8478C169.13 33.3696 168.261 35.5797 168.261 38.4783C168.261 40.5072 168.913 42.2101 170.217 43.587C171.594 44.8913 173.261 45.9783 175.217 46.8478C177.246 47.6449 180.072 48.587 183.696 49.6739C188.623 51.1232 192.645 52.5725 195.761 54.0217C198.877 55.471 201.558 57.6449 203.804 60.5435C206.051 63.442 207.174 67.2464 207.174 71.9565C207.174 76.0145 206.123 79.7826 204.022 83.2609C201.92 86.7391 198.841 89.529 194.783 91.6304C190.725 93.6594 185.906 94.6739 180.326 94.6739Z" fill="#F7F8FC"/>
<path d="M228.084 26.5217C225.403 26.5217 223.157 25.6884 221.345 24.0217C219.606 22.2826 218.736 20.1449 218.736 17.6087C218.736 15.0725 219.606 12.971 221.345 11.3043C223.157 9.56521 225.403 8.69565 228.084 8.69565C230.765 8.69565 232.976 9.56521 234.715 11.3043C236.526 12.971 237.432 15.0725 237.432 17.6087C237.432 20.1449 236.526 22.2826 234.715 24.0217C232.976 25.6884 230.765 26.5217 228.084 26.5217ZM235.584 33.6957V93.913H220.367V33.6957H235.584Z" fill="#F7F8FC"/>
<path d="M348.738 62.5C348.738 64.6739 348.593 66.6304 348.303 68.3696H304.282C304.644 72.7174 306.166 76.1232 308.847 78.587C311.528 81.0507 314.825 82.2826 318.738 82.2826C324.39 82.2826 328.412 79.8551 330.803 75H347.216C345.477 80.7971 342.144 85.5797 337.216 89.3478C332.289 93.0435 326.238 94.8913 319.064 94.8913C313.267 94.8913 308.05 93.6232 303.412 91.087C298.847 88.4783 295.26 84.8188 292.651 80.1087C290.115 75.3986 288.847 69.9638 288.847 63.8044C288.847 57.5725 290.115 52.1015 292.651 47.3913C295.187 42.6812 298.738 39.058 303.303 36.5217C307.869 33.9855 313.122 32.7174 319.064 32.7174C324.789 32.7174 329.898 33.9493 334.39 36.413C338.955 38.8768 342.47 42.3913 344.934 46.9565C347.47 51.4493 348.738 56.6304 348.738 62.5ZM332.977 58.1522C332.905 54.2391 331.492 51.1232 328.738 48.8043C325.984 46.413 322.615 45.2174 318.629 45.2174C314.861 45.2174 311.673 46.3768 309.064 48.6957C306.528 50.942 304.97 54.0942 304.39 58.1522H332.977Z" fill="#F7F8FC"/>
<path d="M355.932 63.8044C355.932 57.5725 357.2 52.1377 359.737 47.5C362.273 42.7899 365.787 39.1667 370.28 36.6304C374.773 34.0217 379.918 32.7174 385.715 32.7174C393.179 32.7174 399.338 34.6014 404.193 38.3696C409.121 42.0652 412.418 47.2826 414.085 54.0217H397.672C396.802 51.413 395.316 49.3841 393.215 47.9348C391.186 46.413 388.65 45.6522 385.606 45.6522C381.258 45.6522 377.816 47.2464 375.28 50.4348C372.744 53.5507 371.476 58.0073 371.476 63.8044C371.476 69.529 372.744 73.9855 375.28 77.1739C377.816 80.2899 381.258 81.8478 385.606 81.8478C391.766 81.8478 395.787 79.0942 397.672 73.587H414.085C412.418 80.1087 409.121 85.2899 404.193 89.1304C399.266 92.971 393.106 94.8913 385.715 94.8913C379.918 94.8913 374.773 93.6232 370.28 91.087C365.787 88.4783 362.273 84.8551 359.737 80.2174C357.2 75.5072 355.932 70.0362 355.932 63.8044Z" fill="#F7F8FC"/>
<path d="M459.146 32.8261C463.711 32.8261 467.769 33.8406 471.32 35.8696C474.87 37.8261 477.624 40.7609 479.58 44.6739C481.609 48.5145 482.624 53.1522 482.624 58.587V93.913H467.407V60.6522C467.407 55.8696 466.211 52.2101 463.82 49.6739C461.428 47.0652 458.167 45.7609 454.037 45.7609C449.834 45.7609 446.501 47.0652 444.037 49.6739C441.646 52.2101 440.45 55.8696 440.45 60.6522V93.913H425.233V13.4783H440.45V41.1957C442.407 38.587 445.015 36.558 448.276 35.1087C451.537 33.587 455.16 32.8261 459.146 32.8261Z" fill="#F7F8FC"/>
<path d="M553.073 62.5C553.073 64.6739 552.928 66.6304 552.638 68.3696H508.617C508.979 72.7174 510.501 76.1232 513.182 78.587C515.863 81.0507 519.16 82.2826 523.073 82.2826C528.725 82.2826 532.747 79.8551 535.138 75H551.551C549.812 80.7971 546.479 85.5797 541.551 89.3478C536.624 93.0435 530.573 94.8913 523.399 94.8913C517.602 94.8913 512.385 93.6232 507.747 91.087C503.182 88.4783 499.595 84.8188 496.986 80.1087C494.45 75.3986 493.182 69.9638 493.182 63.8044C493.182 57.5725 494.45 52.1015 496.986 47.3913C499.522 42.6812 503.073 39.058 507.638 36.5217C512.204 33.9855 517.457 32.7174 523.399 32.7174C529.124 32.7174 534.233 33.9493 538.725 36.413C543.291 38.8768 546.805 42.3913 549.269 46.9565C551.805 51.4493 553.073 56.6304 553.073 62.5ZM537.312 58.1522C537.24 54.2391 535.827 51.1232 533.073 48.8043C530.32 46.413 526.95 45.2174 522.964 45.2174C519.196 45.2174 516.008 46.3768 513.399 48.6957C510.863 50.942 509.305 54.0942 508.725 58.1522H537.312Z" fill="#F7F8FC"/>
<path d="M560.267 63.8044C560.267 57.5725 561.536 52.1377 564.072 47.5C566.608 42.7899 570.123 39.1667 574.615 36.6304C579.108 34.0217 584.253 32.7174 590.05 32.7174C597.514 32.7174 603.673 34.6014 608.528 38.3696C613.456 42.0652 616.753 47.2826 618.42 54.0217H602.007C601.137 51.413 599.652 49.3841 597.55 47.9348C595.521 46.413 592.985 45.6522 589.941 45.6522C585.594 45.6522 582.152 47.2464 579.615 50.4348C577.079 53.5507 575.811 58.0073 575.811 63.8044C575.811 69.529 577.079 73.9855 579.615 77.1739C582.152 80.2899 585.594 81.8478 589.941 81.8478C596.101 81.8478 600.123 79.0942 602.007 73.587H618.42C616.753 80.1087 613.456 85.2899 608.528 89.1304C603.601 92.971 597.441 94.8913 590.05 94.8913C584.253 94.8913 579.108 93.6232 574.615 91.087C570.123 88.4783 566.608 84.8551 564.072 80.2174C561.536 75.5072 560.267 70.0362 560.267 63.8044Z" fill="#F7F8FC"/>
<path d="M665.22 93.913L644.785 68.2609V93.913H629.568V13.4783H644.785V59.2391L665.003 33.6957H684.785L658.263 63.913L685.003 93.913H665.22Z" fill="#F7F8FC"/>
<path d="M749.023 62.5C749.023 64.6739 748.878 66.6304 748.588 68.3696H704.566C704.928 72.7174 706.45 76.1232 709.131 78.587C711.812 81.0507 715.109 82.2826 719.023 82.2826C724.675 82.2826 728.696 79.8551 731.088 75H747.501C745.762 80.7971 742.428 85.5797 737.501 89.3478C732.573 93.0435 726.523 94.8913 719.349 94.8913C713.552 94.8913 708.334 93.6232 703.696 91.087C699.131 88.4783 695.544 84.8188 692.936 80.1087C690.399 75.3986 689.131 69.9638 689.131 63.8044C689.131 57.5725 690.399 52.1015 692.936 47.3913C695.472 42.6812 699.023 39.058 703.588 36.5217C708.153 33.9855 713.407 32.7174 719.349 32.7174C725.073 32.7174 730.182 33.9493 734.675 36.413C739.24 38.8768 742.754 42.3913 745.218 46.9565C747.754 51.4493 749.023 56.6304 749.023 62.5ZM733.262 58.1522C733.189 54.2391 731.776 51.1232 729.023 48.8043C726.269 46.413 722.899 45.2174 718.914 45.2174C715.146 45.2174 711.957 46.3768 709.349 48.6957C706.812 50.942 705.254 54.0942 704.675 58.1522H733.262Z" fill="#F7F8FC"/>
<path d="M775.347 43.0435C777.304 39.8551 779.84 37.3551 782.956 35.5435C786.144 33.7319 789.768 32.8261 793.826 32.8261V48.8043H789.804C785.021 48.8043 781.398 49.9275 778.934 52.1739C776.543 54.4203 775.347 58.3333 775.347 63.913V93.913H760.13V33.6957H775.347V43.0435Z" fill="#F7F8FC"/>
<path d="M268.336 46.1957V75.3261C268.336 77.3551 268.807 78.8406 269.749 79.7826C270.764 80.6522 272.431 81.087 274.749 81.087H281.815V93.913H272.249C259.423 93.913 253.01 87.6812 253.01 75.2174V46.1957V33.6957V18.8043H268.336V33.6957H281.815V46.1957H268.336Z" fill="#F7F8FC"/>
<path opacity="0.97" d="M54.295 99.9753L125.598 23.735L99.079 0.00162103L27.7764 76.242L54.295 99.9753Z" fill="white"/>
<path opacity="0.95" d="M78.5188 74.057L24.2607 25.4974L-0.000655206 51.4389L54.2575 99.9984L78.5188 74.057Z" fill="white"/>
<path d="M78.4999 74.0603L51.9017 50.2557L27.6404 76.1971L54.2386 100.002L78.4999 74.0603Z" fill="white"/>
<path opacity="0.8" d="M80.9419 71.4274L54.3968 47.6703L51.9682 50.2671L78.5133 74.0242L80.9419 71.4274Z" fill="white"/>
</svg>
